<svg xmlns="http://www.w3.org/2000/svg" width="19" height="18" viewBox="0 0 19 18"><g><g clip-path="url(#clip-1766)" opacity=".75"><path fill="#fff" d="M9.476 14.463c0-.152-.016-.298-.049-.438a6.104 6.104 0 0 0-.102-.39 1.345 1.345 0 0 0-.19-.373l-.227-.33a2.073 2.073 0 0 0-.286-.319 16.28 16.28 0 0 0-.298-.276 5.94 5.94 0 0 0-.346-.275 15.324 15.324 0 0 0-.336-.25l-.356-.248a29.372 29.372 0 0 0-.33-.227 4.94 4.94 0 0 0-.541-.022c-.39 0-.772.025-1.147.076a6.73 6.73 0 0 0-1.168.27c-.404.13-.757.296-1.06.498a2.38 2.38 0 0 0-.747.811 2.282 2.282 0 0 0-.292 1.157c0 .49.128.929.384 1.315.256.386.592.688 1.006.908.415.22.85.384 1.304.493.454.108.912.162 1.374.162.425 0 .83-.045 1.217-.135.385-.09.748-.231 1.087-.422.339-.191.607-.456.806-.795.198-.34.297-.736.297-1.19zM8.178 5.138c0-.432-.06-.892-.178-1.379a7.106 7.106 0 0 0-.509-1.412 3.094 3.094 0 0 0-.909-1.125A2.075 2.075 0 0 0 5.29.78c-.671 0-1.19.249-1.558.746-.368.498-.552 1.093-.552 1.785 0 .34.042.696.125 1.071.083.375.21.75.384 1.125.173.375.375.712.606 1.011.23.3.512.543.843.73.332.188.682.282 1.05.282.7 0 1.206-.218 1.52-.654.313-.437.47-1.016.47-1.737zM6.761 0h4.727l-1.46.854h-1.46c.511.325.908.78 1.19 1.364.28.584.421 1.193.421 1.828 0 .534-.083 1.008-.249 1.422-.166.415-.367.748-.605 1-.238.253-.476.486-.714.699a4.27 4.27 0 0 0-.606.66c-.166.227-.249.47-.249.73 0 .187.06.371.179.551.119.18.274.354.465.52.19.165.402.338.632.519.231.18.462.38.693.6.23.22.441.458.633.714.19.256.346.562.465.92.119.356.178.74.178 1.151 0 1.154-.505 2.171-1.514 3.051C8.39 17.528 6.877 18 4.944 18c-.426 0-.857-.036-1.293-.108a6.798 6.798 0 0 1-1.32-.362 4.964 4.964 0 0 1-1.173-.628 2.915 2.915 0 0 1-.833-.963A2.68 2.68 0 0 1 0 14.625c0-.44.134-.927.4-1.46.231-.462.577-.86 1.039-1.196a5.207 5.207 0 0 1 1.568-.767 12.322 12.322 0 0 1 1.677-.39 12.743 12.743 0 0 1 1.622-.146c-.46-.599-.692-1.136-.692-1.612a1.503 1.503 0 0 1 .076-.465l.086-.232a2.28 2.28 0 0 0 .076-.233c-.288.036-.54.054-.757.054-1.074 0-1.996-.353-2.764-1.06C1.563 6.41 1.18 5.524 1.18 4.457c0-1.01.343-1.913 1.028-2.71A4.576 4.576 0 0 1 4.738.217 9.681 9.681 0 0 1 6.761 0zM19 3v1h-3v3h-1V4h-3V3h3V0h1v3z"/></g></g></svg>